# This file uses centimeters as units for non-parametric coordinates.

v -0.160115 0.472170 -0.852771
v 0.254598 0.755579 -0.551156
v -0.688164 0.474252 -0.780459
v -0.664267 -0.467570 -0.540929
v 0.307184 -0.294515 -1.302915
v 0.195077 -0.760032 -0.999719
v 0.723313 0.003135 -1.021360
v -0.903378 0.354363 -0.454621
v -0.582154 0.762440 -0.442294
v 0.859890 -0.297653 -0.563066
v -0.256135 0.797635 -0.045090
v -0.783895 0.000629 0.070900
v -0.366395 0.296702 0.335522
v 0.513558 -0.000471 0.755731
v -0.654696 0.537226 -0.105412
v 0.121450 -0.783606 -0.968072
v 0.256301 0.289516 -1.035957
v -0.058621 0.085827 -1.068015
v 0.130554 0.411511 -0.895784
v -0.228050 -0.761337 0.435532
v -0.279044 -0.888902 0.129304
v -0.303510 0.889343 -0.281414
v 0.885383 0.001773 -0.707442
v 0.885400 0.298172 -0.302553
v 0.487342 0.342345 0.645391
v 0.020905 -0.614179 -1.138296
v -0.684931 -0.616784 -0.306329
v -0.530330 -0.782569 -0.099173
v -0.040123 -0.940069 -0.299493
v 0.331657 0.355137 -1.002729
v 0.098511 -0.547889 -1.226333
v 0.491098 0.002000 -1.241686
v 0.192266 0.476773 0.469368
v -0.013408 0.946321 -0.327691
v -0.163940 -0.387306 -1.073627
v 0.234169 -0.236525 -1.303926
v 0.057687 -0.418518 -1.229878
v 0.214941 0.826548 0.089629
v 0.150269 -0.894886 -0.664287
v 0.584949 0.638580 0.175478
v -0.162711 -0.925183 -0.122439
v 0.647307 -0.481446 0.213214
v -0.143506 0.552304 0.283293
v -0.370650 -0.298249 0.498177
v -0.161047 -0.555234 0.643884
v -0.374531 0.261503 -0.923746
v -0.671727 -0.565848 -0.423094
v -0.766168 -0.550106 -0.267736
v 0.283397 0.861471 -0.122649
v -0.088034 0.856635 -0.126135
v 0.221214 0.591369 0.352662
v -0.055386 0.801715 0.018911
v 0.012903 0.640000 0.235223
v -0.270097 0.786056 -0.632203
v 0.177735 0.548874 -0.814681
v -0.415708 0.071443 -0.913155
v -0.823589 0.082378 -0.644252
v -0.362125 -0.263472 -0.893043
v -0.276843 -0.787854 -0.594665
v -0.616768 -0.521183 -0.543199
v -0.446722 -0.434448 -0.785528
v 0.609657 -0.482275 -0.875397
v -0.209850 -0.519411 -1.013814
v 0.592704 0.513833 -0.607068
v 0.290687 0.885211 -0.297405
v 0.401736 0.805228 0.002027
v -0.874146 -0.098258 -0.502744
v -0.393073 -0.793418 -0.365879
v -0.660426 -0.483924 0.216604
v -0.907298 -0.293033 -0.270289
v 0.221450 -0.792685 0.149430
v 0.506179 0.791778 -0.121498
v 0.865960 -0.003868 0.195397
v 0.761589 0.548771 0.102136
v -0.944080 0.000208 -0.222845
v -0.703025 0.340264 -0.007921
v -0.288622 -0.891723 -0.008673
v 0.132445 -0.781031 0.222885
v -0.562883 -0.766414 -0.032748
v 0.661656 0.472654 0.445019
v 0.025769 0.003842 0.701084
v -0.541899 -0.000244 0.317288
v -0.120420 -0.110588 0.635610
v 0.475745 -0.349784 0.685608
v -0.797886 0.550412 -0.593632
v -0.943007 0.162417 -0.327029
v -0.453450 0.163576 0.332439
v -0.477399 -0.336923 -0.814853
v -0.194413 -0.467790 -1.061538
v -0.722109 -0.511028 -0.415175
v 0.005194 -0.941236 -0.229822
v -0.119666 -0.928107 -0.048383
v -0.134059 0.383543 -0.903099
v -0.481683 0.341022 -0.857318
v -0.501125 0.078774 -0.858277
v 0.358680 -0.000001 -1.254339
v 0.253916 -0.882168 -0.643806
v 0.511859 -0.749541 -0.506730
v 0.730306 -0.549410 -0.333860
v 0.017931 -0.526004 0.701721
v 0.164436 -0.488326 0.732649
v 0.097673 0.882976 -0.137902
v 0.509136 0.595593 0.354138
v 0.411663 0.511853 0.471174
vt 0.928279 0.615739
vt 0.000000 0.752739
vt 0.779644 0.815660
vt 0.074734 0.636904
vt 0.044636 0.071161
vt 0.165474 0.228877
vt 0.793882 0.314774
vt 0.703527 0.175459
vt 0.758524 0.481212
vt 0.775857 0.961191
vt 0.142610 0.575946
vt 0.154213 0.776657
vt 0.669906 0.451894
vt 0.284112 0.871011
vt 0.244120 0.495779
vt 0.314542 0.672229
vt 0.475448 0.615326
vt 0.217923 0.700227
vt 0.061403 0.067904
vt 0.696790 0.149017
vt 0.843810 0.536367
vt 0.893108 0.402347
vt 0.866427 0.602670
vt 0.396592 0.321167
vt 0.404281 0.214417
vt 0.219868 0.884911
vt 0.830075 0.173299
vt 0.809529 0.317995
vt 0.796808 0.232324
vt 0.597728 0.985967
vt 0.463551 0.945321
vt 0.618711 0.148739
vt 0.558808 0.828257
vt 0.460942 0.153821
vt 0.541700 0.445295
vt 0.353565 0.786523
vt 0.344022 0.457514
vt 0.395566 0.413635
vt 0.708690 0.528669
vt 0.665401 0.666640
vt 0.477511 0.711671
vt 0.757466 0.171261
vt 0.240603 0.209151
vt 0.336359 0.161297
vt 0.518361 0.133538
vt 0.830776 0.572068
vt 0.770088 0.211057
vt 0.798798 0.431638
vt 0.428260 0.777301
vt 0.253684 1.000000
vt 0.966530 0.443135
vt 0.205835 0.209993
vt 0.233132 0.247963
vt 0.650426 0.935620
vt 0.300980 0.937111
vt 0.441237 0.825392
vt 0.344686 0.910553
vt 0.388601 0.843216
vt 0.908272 0.839786
vt 0.103200 0.875771
vt 0.845989 0.677331
vt 0.959895 0.342774
vt 0.100634 0.460502
vt 0.906066 0.192492
vt 0.193972 0.047868
vt 0.571501 0.000000
vt 0.171892 0.202312
vt 0.101378 0.179773
vt 0.702538 0.334060
vt 0.781235 0.087274
vt 0.746525 0.711048
vt 0.705688 0.898343
vt 0.577570 0.912928
vt 0.144454 0.401577
vt 0.256686 0.093859
vt 0.456336 0.033191
vt 0.302381 0.333564
vt 0.201949 0.351594
vt 0.492129 0.292670
vt 0.630922 0.878895
vt 0.578213 0.603694
vt 0.589721 0.774220
vt 0.189956 0.462242
vt 0.230372 0.625736
vt 0.411868 0.174319
vt 0.471401 0.298841
vt 0.332209 0.190303
vt 0.523593 0.753620
vt 0.396540 0.602612
vt 0.297844 0.536306
vt 0.375909 0.552798
vt 0.475898 0.518112
vt 0.121670 0.653132
vt 0.166360 0.512455
vt 0.304395 0.609828
vt 0.080684 0.220509
vt 0.925786 0.143611
vt 0.811484 0.130382
vt 0.198465 0.235171
vt 0.510639 0.158521
vt 0.457871 0.180112
vt 0.920975 0.560765
vt 1.000000 0.458565
vt 0.029798 0.609533
vt 0.982522 0.329521
vt 0.024182 0.448623
vt 0.816226 0.414697
vt 0.622235 0.180214
vt 0.620673 0.277278
vt 0.618693 0.382283
vt 0.418733 0.437003
vt 0.436267 0.459961
vt 0.688268 0.988139
vt 0.345010 0.992686
vt 0.511749 0.809060
vt 0.476654 0.779317
vn -0.186350 0.516256 -0.835915
vn -0.380491 0.278420 -0.881878
vn -0.169442 0.443485 -0.880119
vn -0.144174 0.537906 -0.830585
vn -0.035469 0.577722 -0.815462
vn -0.105860 0.774804 -0.623276
vn 0.299907 0.776162 -0.554642
vn 0.187694 0.704274 -0.684667
vn 0.640422 0.647730 -0.412681
vn 0.396476 0.659727 -0.638410
vn -0.462401 0.058271 -0.884754
vn -0.293025 0.285341 -0.912533
vn -0.576830 -0.147002 -0.803528
vn -0.741611 -0.121275 -0.659776
vn -0.481354 0.397483 -0.781221
vn -0.297291 0.275449 -0.914191
vn -0.541085 0.070030 -0.838047
vn -0.536426 0.009029 -0.843899
vn -0.566252 -0.618749 -0.544526
vn -0.456099 -0.799281 -0.391312
vn -0.609866 -0.619342 -0.494448
vn -0.630317 -0.543680 -0.554177
vn -0.676329 -0.309601 -0.668376
vn -0.638990 -0.227652 -0.734756
vn -0.350906 0.220293 -0.910130
vn -0.493930 0.065559 -0.867027
vn 0.529378 -0.396848 -0.749847
vn 0.697806 -0.528075 -0.483946
vn 0.490055 -0.683752 -0.540675
vn 0.344506 -0.545876 -0.763764
vn -0.323864 -0.833540 -0.447574
vn -0.448015 -0.682855 -0.577055
vn -0.181189 0.433602 -0.882700
vn 0.772370 0.188271 -0.606629
vn 0.632262 0.147780 -0.760530
vn 0.646364 0.745279 -0.163621
vn 0.372457 0.863675 -0.339620
vn 0.030099 0.958463 -0.283624
vn 0.003426 0.960658 0.277714
vn 0.012229 0.865850 0.500154
vn 0.356168 0.883160 0.305242
vn 0.199292 0.963004 0.181398
vn -0.562050 0.825638 -0.049202
vn -0.762814 0.595510 -0.251957
vn -0.933777 0.357260 -0.020643
vn -0.652494 0.589884 0.475698
vn -0.945243 -0.293037 0.143685
vn -0.872258 -0.231288 -0.430898
vn -0.769891 -0.418511 -0.481785
vn -0.855846 -0.512113 0.072579
vn -0.455135 -0.852812 -0.256055
vn -0.582673 -0.727249 -0.362768
vn -0.482049 -0.863403 -0.148875
vn -0.585080 -0.768778 -0.258188
vn -0.699668 -0.645834 0.305555
vn -0.776330 -0.319274 0.543484
vn -0.222716 -0.955249 -0.194673
vn -0.173049 -0.948953 -0.263709
vn 0.585159 -0.810042 -0.037684
vn 0.472808 -0.872007 -0.126715
vn 0.450662 -0.849230 0.275158
vn 0.337544 -0.933469 0.121241
vn 0.944237 -0.315037 -0.095744
vn 0.952350 0.120448 -0.280219
vn 0.943639 0.318033 -0.091653
vn 0.950958 -0.104429 0.291160
vn 0.878890 0.468247 0.091087
vn 0.237447 0.812570 0.532306
vn 0.442341 0.825880 0.349652
vn 0.823440 0.308223 0.476388
vn -0.393908 0.914762 0.089703
vn -0.453325 0.707680 0.541928
vn -0.193691 0.820547 0.537761
vn -0.130983 0.921783 0.364911
vn -0.969148 0.206099 0.135187
vn -0.954558 0.019299 0.297399
vn -0.821357 0.075929 0.565338
vn -0.744131 0.383914 0.546698
vn -0.312234 -0.941716 -0.125228
vn -0.352676 -0.933129 -0.069924
vn 0.182217 -0.890191 0.417560
vn 0.130683 -0.951941 0.277002
vn -0.334701 -0.711616 0.617720
vn -0.291335 -0.865431 0.407619
vn 0.785008 -0.612341 0.093815
vn 0.740883 -0.591165 0.318774
vn 0.502252 0.027494 0.864284
vn 0.367075 0.355495 0.859581
vn -0.116410 0.744664 0.657210
vn 0.015680 0.740418 0.671964
vn -0.261922 0.519120 0.813580
vn -0.251870 0.270928 0.929064
vn -0.213610 0.735168 0.643349
vn -0.473330 0.488633 0.732937
vn -0.397265 0.578178 0.712665
vn -0.599674 0.300405 0.741719
vn -0.666367 0.146544 0.731081
vn -0.624423 -0.046385 0.779708
vn -0.467781 0.142326 0.872310
vn -0.360694 -0.418224 0.833660
vn -0.118145 -0.482858 0.867692
vn 0.223273 -0.555588 0.800919
vn 0.559244 -0.465229 0.686155
vn -0.617269 -0.173222 -0.767446
f 17/21/1 18/22/2 93/102/3 19/23/4
f 1/1/5 54/59/6 2/3/7 55/61/8
f 2/3/7 64/71/9 30/46/10 55/61/8
f 93/102/3 18/22/2 56/62/11 46/51/12
f 95/106/13 57/63/14 3/4/15 94/104/16
f 3/4/15 54/60/6 1/2/5 94/104/16
f 56/62/11 18/22/2 35/27/17 58/64/18
f 63/19/19 59/65/20 60/67/21 61/68/22
f 4/6/23 57/63/14 95/106/13 88/96/24
f 35/27/17 18/22/2 36/28/25 37/29/26
f 5/7/27 62/69/28 6/8/29 31/47/30
f 16/20/31 59/66/20 63/70/19 26/42/32
f 36/28/25 18/22/2 17/21/1 96/107/33
f 30/46/10 64/71/9 7/9/34 32/48/35
f 7/9/34 62/69/28 5/7/27 32/48/35
f 72/80/36 64/71/9 2/3/7 65/72/37
f 2/3/7 54/59/6 34/10/38 65/72/37
f 102/113/39 38/30/40 66/73/41 49/54/42
f 9/12/43 54/60/6 3/4/15 85/93/44
f 3/4/15 57/63/14 8/11/45 85/93/44
f 8/11/45 15/18/46 9/12/43 85/93/44
f 70/78/47 67/74/48 90/99/49 48/53/50
f 67/74/48 57/63/14 4/6/23 90/99/49
f 60/67/21 59/65/20 68/75/51 47/52/52
f 47/52/52 68/75/51 28/44/53 27/43/54
f 79/87/55 69/77/56 70/78/47 48/53/50
f 29/45/57 59/66/20 16/20/31 39/32/58
f 6/8/29 62/69/28 98/109/59 97/108/60
f 98/109/59 71/79/61 91/100/62 97/108/60
f 10/13/63 62/69/28 7/9/34 23/39/64
f 7/9/34 64/71/9 24/40/65 23/39/64
f 24/40/65 73/81/66 10/13/63 23/39/64
f 24/40/65 64/71/9 72/80/36 74/82/67
f 66/73/41 38/31/40 103/115/68 40/33/69
f 80/88/70 73/81/66 24/40/65 74/82/67
f 34/50/38 54/60/6 9/12/43 22/26/71
f 9/12/43 15/18/46 11/14/72 22/26/71
f 52/57/73 38/31/40 102/114/39 50/55/74
f 8/11/45 57/63/14 67/74/48 86/94/75
f 86/94/75 67/74/48 70/78/47 75/83/76
f 70/78/47 69/77/56 12/15/77 75/83/76
f 12/15/77 76/84/78 86/94/75 75/83/76
f 76/84/78 15/18/46 8/11/45 86/94/75
f 28/44/53 68/76/51 41/34/79 77/85/80
f 68/76/51 59/66/20 29/45/57 41/34/79
f 91/100/62 71/79/61 78/86/81 92/101/82
f 92/101/82 78/86/81 20/24/83 21/25/84
f 20/24/83 69/77/56 79/87/55 21/25/84
f 98/109/59 62/69/28 10/13/63 99/110/85
f 10/13/63 73/81/66 42/35/86 99/110/85
f 42/35/86 71/79/61 98/109/59 99/110/85
f 14/17/87 73/81/66 80/88/70 25/41/88
f 103/115/68 38/31/40 51/56/89 104/116/90
f 33/49/91 81/89/92 14/17/87 25/41/88
f 51/56/89 38/31/40 52/57/73 53/58/93
f 11/14/72 15/18/46 13/16/94 43/36/95
f 13/16/94 81/89/92 33/49/91 43/36/95
f 13/16/94 15/18/46 76/84/78 87/95/96
f 87/95/96 76/84/78 12/15/77 82/90/97
f 12/15/77 69/77/56 44/37/98 82/90/97
f 83/91/99 81/89/92 13/16/94 87/95/96
f 44/37/98 83/91/99 87/95/96 82/90/97
f 44/37/98 69/77/56 20/24/83 45/38/100
f 20/24/83 78/86/81 100/111/101 45/38/100
f 78/86/81 71/79/61 101/112/102 100/111/101
f 101/112/102 81/89/92 83/91/99 100/111/101
f 100/111/101 83/91/99 44/37/98 45/38/100
f 101/112/102 71/79/61 42/35/86 84/92/103
f 42/35/86 73/81/66 14/17/87 84/92/103
f 14/17/87 81/89/92 101/112/102 84/92/103
f 4/6/23 88/96/24 61/68/22 60/67/21
f 88/96/24 89/5/104 63/19/19 61/68/22
f 89/98/104 31/47/30 26/42/32 63/70/19
f 31/47/30 6/8/29 16/20/31 26/42/32
f 79/87/55 48/53/50 27/43/54 28/44/53
f 48/53/50 90/99/49 47/52/52 27/43/54
f 90/99/49 4/6/23 60/67/21 47/52/52
f 6/8/29 97/108/60 39/32/58 16/20/31
f 97/108/60 91/100/62 29/45/57 39/32/58
f 91/100/62 92/101/82 41/34/79 29/45/57
f 92/101/82 21/25/84 77/85/80 41/34/79
f 21/25/84 79/87/55 28/44/53 77/85/80
f 1/1/5 55/61/8 19/23/4 93/102/3
f 55/61/8 30/46/10 17/21/1 19/23/4
f 95/105/13 94/103/16 46/51/12 56/62/11
f 94/103/16 1/1/5 93/102/3 46/51/12
f 89/98/104 88/97/24 58/64/18 35/27/17
f 88/97/24 95/105/13 56/62/11 58/64/18
f 5/7/27 31/47/30 37/29/26 36/28/25
f 31/47/30 89/98/104 35/27/17 37/29/26
f 30/46/10 32/48/35 96/107/33 17/21/1
f 32/48/35 5/7/27 36/28/25 96/107/33
f 72/80/36 65/72/37 49/54/42 66/73/41
f 65/72/37 34/10/38 102/113/39 49/54/42
f 80/88/70 74/82/67 40/33/69 103/115/68
f 74/82/67 72/80/36 66/73/41 40/33/69
f 34/50/38 22/26/71 50/55/74 102/114/39
f 22/26/71 11/14/72 52/57/73 50/55/74
f 33/49/91 25/41/88 104/116/90 51/56/89
f 25/41/88 80/88/70 103/115/68 104/116/90
f 11/14/72 43/36/95 53/58/93 52/57/73
f 43/36/95 33/49/91 51/56/89 53/58/93
