# This file uses centimeters as units for non-parametric coordinates.

mtllib grass.mtl
g default
v -0.147402 0.000000 0.005000
v 0.147402 0.000000 0.005000
v -0.183310 1.000000 0.005000
v 0.183310 1.000000 0.005000
v -0.183310 1.000000 -0.005000
v 0.183310 1.000000 -0.005000
v -0.147402 0.000000 -0.005000
v 0.147402 0.000000 -0.005000
v -0.157787 2.016585 0.005000
v 0.157787 2.016585 0.005000
v 0.157787 2.016585 -0.005000
v -0.157787 2.016585 -0.005000
v -0.037519 3.225823 0.005000
v 0.037519 3.225823 0.005000
v 0.037519 3.225823 -0.005000
v -0.037519 3.225823 -0.005000
v 0.000000 3.435376 0.000000
v 0.126472 2.564410 0.005000
v -0.126472 2.564410 0.005000
v -0.126472 2.564410 -0.005000
v 0.126472 2.564410 -0.005000
v -0.174310 1.508700 0.005000
v -0.174310 1.508700 -0.005000
v 0.174310 1.508700 -0.005000
v 0.174310 1.508700 0.005000
v -0.172740 0.469298 0.005000
v -0.172740 0.469298 -0.005000
v 0.172740 0.469298 -0.005000
v 0.172740 0.469298 0.005000
v -0.083897 2.932113 0.005000
v -0.083897 2.932113 -0.005000
v 0.083897 2.932113 -0.005000
v 0.083897 2.932113 0.005000
vt 0.375000 0.000000
vt 0.625000 0.000000
vt 0.375000 0.250000
vt 0.625000 0.250000
vt 0.375000 0.500000
vt 0.625000 0.500000
vt 0.375000 0.750000
vt 0.625000 0.750000
vt 0.375000 1.000000
vt 0.625000 1.000000
vt 0.875000 0.000000
vt 0.875000 0.250000
vt 0.125000 0.000000
vt 0.125000 0.250000
vt 0.375000 0.250000
vt 0.625000 0.250000
vt 0.625000 0.500000
vt 0.375000 0.500000
vt 0.375000 0.250000
vt 0.625000 0.250000
vt 0.625000 0.500000
vt 0.375000 0.500000
vt 0.500000 0.375000
vt 0.625000 0.250000
vt 0.375000 0.250000
vt 0.375000 0.500000
vt 0.625000 0.500000
vt 0.375000 0.250000
vt 0.375000 0.500000
vt 0.625000 0.500000
vt 0.625000 0.250000
vt 0.375000 0.117324
vt 0.125000 0.117324
vt 0.375000 0.632676
vt 0.625000 0.632676
vt 0.875000 0.117324
vt 0.625000 0.117324
vt 0.375000 0.250000
vt 0.375000 0.500000
vt 0.625000 0.500000
vt 0.625000 0.250000
vn 0.000000 0.000000 1.000000
vn 0.000000 0.000000 1.000000
vn 0.000000 0.000000 1.000000
vn 0.000000 0.000000 1.000000
vn 0.000000 0.000000 -1.000000
vn 0.000000 0.000000 -1.000000
vn 0.000000 0.000000 -1.000000
vn 0.000000 0.000000 -1.000000
vn 0.000000 -1.000000 0.000000
vn 0.000000 -1.000000 0.000000
vn 0.000000 -1.000000 0.000000
vn 0.000000 -1.000000 0.000000
vn 0.998546 -0.053913 0.000000
vn 0.998546 -0.053913 0.000000
vn 0.999356 -0.035885 0.000000
vn 0.999356 -0.035885 0.000000
vn -0.998546 -0.053913 0.000000
vn -0.998546 -0.053913 0.000000
vn -0.999356 -0.035885 0.000000
vn -0.999356 -0.035885 0.000000
vn 0.000000 0.000000 1.000000
vn 0.000000 0.000000 1.000000
vn 0.000000 0.000000 1.000000
vn 0.000000 0.000000 1.000000
vn 0.999999 -0.001511 0.000000
vn 0.999999 -0.001511 0.000000
vn 0.999685 0.025098 0.000000
vn 0.999685 0.025098 0.000000
vn 0.000000 0.000000 -1.000000
vn 0.000000 0.000000 -1.000000
vn 0.000000 0.000000 -1.000000
vn 0.000000 0.000000 -1.000000
vn -0.999999 -0.001511 0.000000
vn -0.999999 -0.001511 0.000000
vn -0.999685 0.025098 0.000000
vn -0.999685 0.025098 0.000000
vn 0.000000 0.000000 1.000000
vn 0.000000 0.000000 1.000000
vn 0.000000 0.000000 1.000000
vn 0.000000 0.000000 1.000000
vn 0.998975 0.045267 0.000000
vn 0.998975 0.045267 0.000000
vn 0.996759 0.080446 0.000000
vn 0.996759 0.080446 0.000000
vn 0.000000 0.000000 -1.000000
vn 0.000000 0.000000 -1.000000
vn 0.000000 0.000000 -1.000000
vn 0.000000 0.000000 -1.000000
vn -0.998975 0.045267 0.000000
vn -0.998975 0.045267 0.000000
vn -0.996759 0.080446 0.000000
vn -0.996759 0.080446 0.000000
vn 0.000000 0.023853 0.999716
vn 0.000000 0.023853 0.999716
vn 0.000000 0.023853 0.999716
vn 0.984347 0.176242 0.000000
vn 0.984347 0.176242 0.000000
vn 0.984347 0.176242 0.000000
vn 0.000000 0.023853 -0.999716
vn 0.000000 0.023853 -0.999716
vn 0.000000 0.023853 -0.999716
vn -0.984347 0.176242 0.000000
vn -0.984347 0.176242 0.000000
vn -0.984347 0.176242 0.000000
vn 0.000000 0.000000 1.000000
vn 0.000000 0.000000 1.000000
vn -0.991077 0.133289 0.000000
vn -0.991077 0.133289 0.000000
vn 0.000000 0.000000 -1.000000
vn 0.000000 0.000000 -1.000000
vn 0.991077 0.133289 0.000000
vn 0.991077 0.133289 0.000000
vn -0.987762 0.155971 0.000000
vn -0.987762 0.155971 0.000000
vn 0.000000 0.000000 -1.000000
vn 0.000000 0.000000 -1.000000
vn 0.987762 0.155971 0.000000
vn 0.987762 0.155971 0.000000
vn 0.000000 0.000000 1.000000
vn 0.000000 0.000000 1.000000
s 1
g pCube1
usemtl initialShadingGroup
f 1/1/1 2/2/2 29/37/3 26/32/4
s 2
f 27/34/5 28/35/6 8/8/7 7/7/8
s off
f 7/7/9 8/8/10 2/10/11 1/9/12
s 3
f 2/2/13 8/11/14 28/36/15 29/37/16
s 4
f 7/13/17 1/1/18 26/32/19 27/33/20
s 1
f 3/3/21 4/4/22 25/31/23 22/28/24
s 3
f 4/4/25 6/6/26 24/30/27 25/31/28
s 2
f 6/6/29 5/5/30 23/29/31 24/30/32
s 4
f 5/5/33 3/3/34 22/28/35 23/29/36
s 1
f 9/15/37 10/16/38 18/24/39 19/25/40
s 3
f 10/16/41 11/17/42 21/27/43 18/24/44
s 2
f 11/17/45 12/18/46 20/26/47 21/27/48
s 4
f 12/18/49 9/15/50 19/25/51 20/26/52
s off
f 13/19/53 14/20/54 17/23/55
f 14/20/56 15/21/57 17/23/58
f 15/21/59 16/22/60 17/23/61
f 16/22/62 13/19/63 17/23/64
s 1
f 19/25/40 18/24/39 33/41/65 30/38/66
s 4
f 20/26/52 19/25/51 30/38/67 31/39/68
s 2
f 21/27/48 20/26/47 31/39/69 32/40/70
s 3
f 18/24/44 21/27/43 32/40/71 33/41/72
s 4
f 23/29/36 22/28/35 9/15/50 12/18/49
s 2
f 24/30/32 23/29/31 12/18/46 11/17/45
s 3
f 25/31/28 24/30/27 11/17/42 10/16/41
s 1
f 22/28/24 25/31/23 10/16/38 9/15/37
s 4
f 27/33/20 26/32/19 3/3/34 5/14/33
s 2
f 5/5/30 6/6/29 28/35/6 27/34/5
s 3
f 29/37/16 28/36/15 6/12/26 4/4/25
s 1
f 26/32/4 29/37/3 4/4/22 3/3/21
s 4
f 31/39/68 30/38/67 13/19/73 16/22/74
s 2
f 32/40/70 31/39/69 16/22/75 15/21/76
s 3
f 33/41/72 32/40/71 15/21/77 14/20/78
s 1
f 30/38/66 33/41/65 14/20/79 13/19/80
