# This file uses centimeters as units for non-parametric coordinates.

v 9.803015 17.753563 8.888971
v 9.168615 17.753563 7.643894
v 8.180515 17.753563 6.655794
v 6.935437 17.753563 6.021395
v 5.555257 17.753563 5.802796
v 4.175077 17.753563 6.021395
v 2.929999 17.753563 6.655795
v 1.941900 17.753563 7.643895
v 1.307500 17.753563 8.888973
v 1.088902 17.753563 10.269153
v 1.307500 17.753563 11.649331
v 1.941900 17.753563 12.894409
v 2.929999 17.753563 13.882509
v 4.175077 17.753563 14.516908
v 5.555257 17.753563 14.735508
v 6.935436 17.753563 14.516908
v 8.180514 17.753563 13.882509
v 9.168613 17.753563 12.894409
v 9.803011 17.753563 11.649331
v 10.021610 17.753563 10.269153
v 9.412140 18.424236 9.015975
v 8.836118 18.424236 7.885467
v 7.938941 18.424236 6.988292
v 6.808434 18.424236 6.412270
v 5.555257 18.424236 6.213786
v 4.302079 18.424236 6.412270
v 3.171572 18.424236 6.988292
v 2.274397 18.424236 7.885468
v 1.698375 18.424236 9.015976
v 1.499891 18.424236 10.269153
v 1.698375 18.424236 11.522329
v 2.274397 18.424236 12.652836
v 3.171573 18.424236 13.550011
v 4.302079 18.424236 14.126034
v 5.555257 18.424236 14.324518
v 6.808433 18.424236 14.126034
v 7.938940 18.424236 13.550011
v 8.836115 18.424236 12.652835
v 9.412138 18.424236 11.522329
v 9.610620 18.424236 10.269153
v 8.926296 19.022360 9.173836
v 8.422834 19.022360 8.185736
v 7.638674 19.022360 7.401575
v 6.650573 19.022360 6.898113
v 5.555257 19.022360 6.724632
v 4.459940 19.022360 6.898113
v 3.471840 19.022360 7.401576
v 2.687680 19.022360 8.185736
v 2.184218 19.022360 9.173836
v 2.010737 19.022360 10.269153
v 2.184218 19.022360 11.364470
v 2.687680 19.022360 12.352569
v 3.471841 19.022360 13.136728
v 4.459940 19.022360 13.640190
v 5.555257 19.022360 13.813670
v 6.650573 19.022360 13.640190
v 7.638672 19.022360 13.136728
v 8.422832 19.022360 12.352569
v 8.926294 19.022360 11.364470
v 9.099775 19.022360 10.269153
v 8.357447 19.533207 9.358666
v 7.938941 19.533207 8.537303
v 7.287105 19.533207 7.885467
v 6.465744 19.533207 7.466963
v 5.555257 19.533207 7.322756
v 4.644770 19.533207 7.466963
v 3.823409 19.533207 7.885468
v 3.171573 19.533207 8.537305
v 2.753068 19.533207 9.358666
v 2.608861 19.533207 10.269153
v 2.753068 19.533207 11.179639
v 3.171573 19.533207 12.000999
v 3.823409 19.533207 12.652836
v 4.644771 19.533207 13.071341
v 5.555257 19.533207 13.215548
v 6.465742 19.533207 13.071341
v 7.287104 19.533207 12.652835
v 7.938940 19.533207 12.000999
v 8.357445 19.533207 11.179639
v 8.501651 19.533207 10.269153
v 7.719597 19.944195 9.565916
v 7.396355 19.944195 8.931517
v 6.892893 19.944195 8.428054
v 6.258494 19.944195 8.104813
v 5.555257 19.944195 7.993430
v 4.852020 19.944195 8.104813
v 4.217621 19.944195 8.428054
v 3.714159 19.944195 8.931517
v 3.390917 19.944195 9.565916
v 3.279535 19.944195 10.269153
v 3.390917 19.944195 10.972389
v 3.714159 19.944195 11.606789
v 4.217621 19.944195 12.110250
v 4.852020 19.944195 12.433492
v 5.555257 19.944195 12.544873
v 6.258493 19.944195 12.433492
v 6.892892 19.944195 12.110250
v 7.396354 19.944195 11.606788
v 7.719596 19.944195 10.972389
v 7.830977 19.944195 10.269153
v 7.028455 20.245209 9.790481
v 6.808434 20.245209 9.358666
v 6.465744 20.245209 9.015975
v 6.033928 20.245209 8.795954
v 5.555257 20.245209 8.720140
v 5.076585 20.245209 8.795954
v 4.644770 20.245209 9.015976
v 4.302079 20.245209 9.358666
v 4.082059 20.245209 9.790481
v 4.006245 20.245209 10.269153
v 4.082059 20.245209 10.747823
v 4.302079 20.245209 11.179639
v 4.644771 20.245209 11.522329
v 5.076585 20.245209 11.742350
v 5.555257 20.245209 11.818164
v 6.033927 20.245209 11.742350
v 6.465743 20.245209 11.522329
v 6.808434 20.245209 11.179639
v 7.028454 20.245209 10.747823
v 7.104269 20.245209 10.269153
v 6.301038 20.428833 10.026834
v 6.189656 20.428833 9.808234
v 6.016174 20.428833 9.634753
v 5.797576 20.428833 9.523371
v 5.555257 20.428833 9.484992
v 5.312938 20.428833 9.523371
v 5.094339 20.428833 9.634753
v 4.920857 20.428833 9.808234
v 4.809476 20.428833 10.026834
v 4.771097 20.428833 10.269153
v 4.809476 20.428833 10.511471
v 4.920857 20.428833 10.730069
v 5.094339 20.428833 10.903551
v 5.312938 20.428833 11.014933
v 5.555257 20.428833 11.053312
v 5.797575 20.428833 11.014933
v 6.016174 20.428833 10.903551
v 6.189655 20.428833 10.730069
v 6.301037 20.428833 10.511471
v 6.339417 20.428833 10.269153
v 5.555257 20.490547 10.269153
v 10.089294 17.026854 8.795954
v 9.412140 17.026854 7.466963
v 8.357447 17.026854 6.412270
v 7.028455 17.026854 5.735115
v 5.555257 17.026854 5.501783
v 4.082058 17.026854 5.735115
v 2.753067 17.026854 6.412270
v 1.698374 17.026854 7.466963
v 1.021220 17.026854 8.795954
v 0.787889 17.026854 10.269153
v 1.021220 17.026854 11.742350
v 1.698375 17.026854 13.071342
v 2.753068 17.026854 14.126034
v 4.082059 17.026854 14.803187
v 5.555257 17.026854 15.036520
v 7.028454 17.026854 14.803187
v 8.357445 17.026854 14.126034
v 9.412138 17.026854 13.071341
v 10.089293 17.026854 11.742350
v 10.322623 17.026854 10.269153
v -15.919708 18.102108 4.502529
v -10.090765 18.102108 4.502529
v -10.090765 18.102108 -1.326414
v -15.919708 18.102108 -1.326414
v -15.346470 10.776072 -6.781507
v -9.517526 10.776072 -6.781507
v -9.517526 10.776072 -12.610451
v -15.346470 10.776072 -12.610451
v -3.219651 5.511177 -6.781507
v 2.609292 5.511177 -6.781507
v 2.609292 5.511177 -12.610451
v -3.219651 5.511177 -12.610451
v 8.215604 -0.317766 -6.781507
v 8.215604 -0.317766 -12.610451
v -30.000000 0.000000 30.000000
v 30.000000 0.000000 30.000000
v -30.000000 0.000000 -30.000000
v 30.000000 0.000000 -30.000000
vt 0.000000 0.600000
vt 0.050000 0.600000
vt 0.050000 0.650000
vt 0.000000 0.650000
vt 0.100000 0.600000
vt 0.100000 0.650000
vt 0.150000 0.600000
vt 0.150000 0.650000
vt 0.200000 0.600000
vt 0.200000 0.650000
vt 0.250000 0.600000
vt 0.250000 0.650000
vt 0.300000 0.600000
vt 0.300000 0.650000
vt 0.350000 0.600000
vt 0.350000 0.650000
vt 0.400000 0.600000
vt 0.400000 0.650000
vt 0.450000 0.600000
vt 0.450000 0.650000
vt 0.500000 0.600000
vt 0.500000 0.650000
vt 0.550000 0.600000
vt 0.550000 0.650000
vt 0.600000 0.600000
vt 0.600000 0.650000
vt 0.650000 0.600000
vt 0.650000 0.650000
vt 0.700000 0.600000
vt 0.700000 0.650000
vt 0.750000 0.600000
vt 0.750000 0.650000
vt 0.800000 0.600000
vt 0.800000 0.650000
vt 0.850000 0.600000
vt 0.850000 0.650000
vt 0.900000 0.600000
vt 0.900000 0.650000
vt 0.950000 0.600000
vt 0.950000 0.650000
vt 1.000000 0.600000
vt 1.000000 0.650000
vt 0.050000 0.700000
vt 0.000000 0.700000
vt 0.100000 0.700000
vt 0.150000 0.700000
vt 0.200000 0.700000
vt 0.250000 0.700000
vt 0.300000 0.700000
vt 0.350000 0.700000
vt 0.400000 0.700000
vt 0.450000 0.700000
vt 0.500000 0.700000
vt 0.550000 0.700000
vt 0.600000 0.700000
vt 0.650000 0.700000
vt 0.700000 0.700000
vt 0.750000 0.700000
vt 0.800000 0.700000
vt 0.850000 0.700000
vt 0.900000 0.700000
vt 0.950000 0.700000
vt 1.000000 0.700000
vt 0.050000 0.750000
vt 0.000000 0.750000
vt 0.100000 0.750000
vt 0.150000 0.750000
vt 0.200000 0.750000
vt 0.250000 0.750000
vt 0.300000 0.750000
vt 0.350000 0.750000
vt 0.400000 0.750000
vt 0.450000 0.750000
vt 0.500000 0.750000
vt 0.550000 0.750000
vt 0.600000 0.750000
vt 0.650000 0.750000
vt 0.700000 0.750000
vt 0.750000 0.750000
vt 0.800000 0.750000
vt 0.850000 0.750000
vt 0.900000 0.750000
vt 0.950000 0.750000
vt 1.000000 0.750000
vt 0.050000 0.800000
vt 0.000000 0.800000
vt 0.100000 0.800000
vt 0.150000 0.800000
vt 0.200000 0.800000
vt 0.250000 0.800000
vt 0.300000 0.800000
vt 0.350000 0.800000
vt 0.400000 0.800000
vt 0.450000 0.800000
vt 0.500000 0.800000
vt 0.550000 0.800000
vt 0.600000 0.800000
vt 0.650000 0.800000
vt 0.700000 0.800000
vt 0.750000 0.800000
vt 0.800000 0.800000
vt 0.850000 0.800000
vt 0.900000 0.800000
vt 0.950000 0.800000
vt 1.000000 0.800000
vt 0.050000 0.850000
vt 0.000000 0.850000
vt 0.100000 0.850000
vt 0.150000 0.850000
vt 0.200000 0.850000
vt 0.250000 0.850000
vt 0.300000 0.850000
vt 0.350000 0.850000
vt 0.400000 0.850000
vt 0.450000 0.850000
vt 0.500000 0.850000
vt 0.550000 0.850000
vt 0.600000 0.850000
vt 0.650000 0.850000
vt 0.700000 0.850000
vt 0.750000 0.850000
vt 0.800000 0.850000
vt 0.850000 0.850000
vt 0.900000 0.850000
vt 0.950000 0.850000
vt 1.000000 0.850000
vt 0.050000 0.900000
vt 0.000000 0.900000
vt 0.100000 0.900000
vt 0.150000 0.900000
vt 0.200000 0.900000
vt 0.250000 0.900000
vt 0.300000 0.900000
vt 0.350000 0.900000
vt 0.400000 0.900000
vt 0.450000 0.900000
vt 0.500000 0.900000
vt 0.550000 0.900000
vt 0.600000 0.900000
vt 0.650000 0.900000
vt 0.700000 0.900000
vt 0.750000 0.900000
vt 0.800000 0.900000
vt 0.850000 0.900000
vt 0.900000 0.900000
vt 0.950000 0.900000
vt 1.000000 0.900000
vt 0.050000 0.950000
vt 0.000000 0.950000
vt 0.100000 0.950000
vt 0.150000 0.950000
vt 0.200000 0.950000
vt 0.250000 0.950000
vt 0.300000 0.950000
vt 0.350000 0.950000
vt 0.400000 0.950000
vt 0.450000 0.950000
vt 0.500000 0.950000
vt 0.550000 0.950000
vt 0.600000 0.950000
vt 0.650000 0.950000
vt 0.700000 0.950000
vt 0.750000 0.950000
vt 0.800000 0.950000
vt 0.850000 0.950000
vt 0.900000 0.950000
vt 0.950000 0.950000
vt 1.000000 0.950000
vt 0.025000 1.000000
vt 0.075000 1.000000
vt 0.125000 1.000000
vt 0.175000 1.000000
vt 0.225000 1.000000
vt 0.275000 1.000000
vt 0.325000 1.000000
vt 0.375000 1.000000
vt 0.425000 1.000000
vt 0.475000 1.000000
vt 0.525000 1.000000
vt 0.575000 1.000000
vt 0.625000 1.000000
vt 0.675000 1.000000
vt 0.725000 1.000000
vt 0.775000 1.000000
vt 0.825000 1.000000
vt 0.875000 1.000000
vt 0.925000 1.000000
vt 0.975000 1.000000
vt 0.375000 0.250000
vt 0.625000 0.250000
vt 0.625000 0.500000
vt 0.375000 0.500000
vt 0.375000 0.250000
vt 0.625000 0.250000
vt 0.625000 0.500000
vt 0.375000 0.500000
vt 0.375000 0.250000
vt 0.625000 0.250000
vt 0.625000 0.500000
vt 0.375000 0.500000
vt 0.625000 0.000000
vt 0.875000 0.000000
vt 0.875000 0.250000
vt 0.000000 0.000000
vt 1.000000 0.000000
vt 1.000000 1.000000
vt 0.000000 1.000000
vn 0.878662 0.382684 -0.285494
vn 0.747434 0.382683 -0.543043
vn 0.723291 0.447994 -0.525502
vn 0.850280 0.447994 -0.276271
vn 0.543043 0.382683 -0.747434
vn 0.525501 0.447994 -0.723291
vn 0.285494 0.382683 -0.878662
vn 0.276272 0.447994 -0.850280
vn -0.000000 0.382683 -0.923880
vn -0.000000 0.447994 -0.894037
vn -0.285495 0.382684 -0.878662
vn -0.276273 0.447994 -0.850279
vn -0.543043 0.382685 -0.747434
vn -0.525502 0.447994 -0.723291
vn -0.747434 0.382685 -0.543042
vn -0.723291 0.447994 -0.525501
vn -0.878662 0.382684 -0.285494
vn -0.850279 0.447994 -0.276272
vn -0.923880 0.382683 -0.000000
vn -0.894037 0.447994 -0.000000
vn -0.878662 0.382684 0.285495
vn -0.850280 0.447994 0.276272
vn -0.747434 0.382684 0.543043
vn -0.723291 0.447994 0.525502
vn -0.543043 0.382684 0.747434
vn -0.525501 0.447994 0.723291
vn -0.285495 0.382683 0.878662
vn -0.276273 0.447993 0.850280
vn 0.000000 0.382683 0.923880
vn 0.000000 0.447993 0.894037
vn 0.285495 0.382683 0.878662
vn 0.276273 0.447994 0.850279
vn 0.543043 0.382683 0.747434
vn 0.525502 0.447994 0.723291
vn 0.747434 0.382684 0.543043
vn 0.723291 0.447994 0.525501
vn 0.878661 0.382685 0.285495
vn 0.850279 0.447994 0.276272
vn 0.923879 0.382684 0.000001
vn 0.894037 0.447994 0.000001
vn 0.658808 0.580401 -0.478651
vn 0.774475 0.580401 -0.251641
vn 0.478651 0.580401 -0.658807
vn 0.251642 0.580401 -0.774475
vn -0.000000 0.580401 -0.814331
vn -0.251642 0.580401 -0.774475
vn -0.478652 0.580401 -0.658808
vn -0.658808 0.580401 -0.478652
vn -0.774475 0.580401 -0.251642
vn -0.814331 0.580401 -0.000000
vn -0.774475 0.580401 0.251642
vn -0.658808 0.580401 0.478652
vn -0.478652 0.580401 0.658808
vn -0.251642 0.580401 0.774475
vn 0.000000 0.580401 0.814331
vn 0.251642 0.580401 0.774475
vn 0.478652 0.580401 0.658807
vn 0.658808 0.580401 0.478651
vn 0.774475 0.580400 0.251642
vn 0.814331 0.580400 0.000001
vn 0.578713 0.698788 -0.420459
vn 0.680318 0.698788 -0.221047
vn 0.420459 0.698788 -0.578713
vn 0.221049 0.698788 -0.680318
vn -0.000000 0.698788 -0.715328
vn -0.221049 0.698788 -0.680318
vn -0.420460 0.698789 -0.578712
vn -0.578713 0.698789 -0.420459
vn -0.680318 0.698788 -0.221049
vn -0.715329 0.698788 -0.000000
vn -0.680318 0.698788 0.221048
vn -0.578713 0.698788 0.420459
vn -0.420459 0.698788 0.578713
vn -0.221048 0.698788 0.680318
vn 0.000000 0.698788 0.715329
vn 0.221049 0.698788 0.680318
vn 0.420460 0.698788 0.578713
vn 0.578713 0.698788 0.420460
vn 0.680318 0.698788 0.221048
vn 0.715329 0.698788 0.000000
vn 0.485138 0.800252 -0.352473
vn 0.570315 0.800252 -0.185305
vn 0.352473 0.800252 -0.485139
vn 0.185306 0.800252 -0.570315
vn -0.000000 0.800252 -0.599664
vn -0.185306 0.800252 -0.570314
vn -0.352474 0.800252 -0.485138
vn -0.485139 0.800252 -0.352473
vn -0.570314 0.800252 -0.185306
vn -0.599664 0.800252 -0.000000
vn -0.570314 0.800252 0.185306
vn -0.485139 0.800252 0.352473
vn -0.352474 0.800252 0.485138
vn -0.185306 0.800252 0.570314
vn -0.000000 0.800252 0.599664
vn 0.185306 0.800252 0.570315
vn 0.352474 0.800252 0.485138
vn 0.485138 0.800252 0.352474
vn 0.570314 0.800252 0.185306
vn 0.599664 0.800252 0.000000
vn 0.380846 0.882266 -0.276700
vn 0.447711 0.882266 -0.145470
vn 0.276700 0.882266 -0.380845
vn 0.145470 0.882266 -0.447710
vn 0.000000 0.882266 -0.470751
vn -0.145470 0.882266 -0.447711
vn -0.276701 0.882266 -0.380846
vn -0.380846 0.882266 -0.276701
vn -0.447711 0.882266 -0.145470
vn -0.470751 0.882266 -0.000000
vn -0.447711 0.882266 0.145470
vn -0.380846 0.882266 0.276701
vn -0.276701 0.882266 0.380845
vn -0.145470 0.882266 0.447711
vn -0.000000 0.882266 0.470752
vn 0.145470 0.882266 0.447712
vn 0.276701 0.882266 0.380846
vn 0.380846 0.882266 0.276701
vn 0.447711 0.882266 0.145471
vn 0.470751 0.882266 0.000000
vn 0.269871 0.942722 -0.196074
vn 0.317252 0.942722 -0.103083
vn 0.196073 0.942722 -0.269870
vn 0.103081 0.942722 -0.317252
vn 0.000000 0.942722 -0.333579
vn -0.103082 0.942722 -0.317252
vn -0.196073 0.942722 -0.269871
vn -0.269871 0.942722 -0.196073
vn -0.317252 0.942722 -0.103082
vn -0.333579 0.942722 -0.000001
vn -0.317252 0.942722 0.103081
vn -0.269871 0.942722 0.196073
vn -0.196072 0.942722 0.269871
vn -0.103081 0.942722 0.317252
vn -0.000000 0.942722 0.333579
vn 0.103081 0.942722 0.317252
vn 0.196073 0.942722 0.269871
vn 0.269871 0.942722 0.196073
vn 0.317252 0.942722 0.103083
vn 0.333579 0.942722 0.000001
vn 0.162095 0.979722 -0.117769
vn 0.190554 0.979722 -0.061916
vn 0.117769 0.979722 -0.162096
vn 0.061915 0.979722 -0.190555
vn 0.000000 0.979722 -0.200360
vn -0.061915 0.979722 -0.190555
vn -0.117769 0.979722 -0.162096
vn -0.162095 0.979722 -0.117770
vn -0.190554 0.979722 -0.061916
vn -0.200361 0.979722 0.000001
vn -0.190555 0.979722 0.061917
vn -0.162095 0.979722 0.117769
vn -0.117769 0.979722 0.162097
vn -0.061915 0.979722 0.190556
vn 0.000000 0.979722 0.200360
vn 0.061915 0.979722 0.190554
vn 0.117769 0.979722 0.162097
vn 0.162095 0.979722 0.117769
vn 0.190555 0.979722 0.061915
vn 0.200361 0.979722 -0.000001
vn -0.000000 1.000000 0.000000
vn 0.000000 1.000000 0.000000
vn 0.000000 1.000000 0.000000
vn 0.000000 1.000000 0.000000
vn 0.000000 1.000000 0.000000
vn 0.000000 1.000000 0.000000
vn 0.000000 1.000000 0.000000
vn 0.000000 1.000000 0.000000
vn 0.000000 1.000000 0.000000
vn 0.000000 1.000000 0.000000
vn 0.000000 1.000000 0.000000
vn 0.000000 1.000000 0.000000
vn 0.000000 1.000000 0.000000
vn 0.720737 0.693209 0.000000
vn 0.720737 0.693209 0.000000
vn 0.720737 0.693209 0.000000
vn 0.720737 0.693209 0.000000
vn 0.000000 1.000000 0.000000
vn 0.000000 1.000000 0.000000
vn 0.000000 1.000000 0.000000
vn 0.000000 1.000000 0.000000
f 142/1/1 143/2/2 2/3/3 1/4/4
f 143/2/2 144/5/5 3/6/6 2/3/3
f 144/5/5 145/7/7 4/8/8 3/6/6
f 145/7/7 146/9/9 5/10/10 4/8/8
f 146/9/9 147/11/11 6/12/12 5/10/10
f 147/11/11 148/13/13 7/14/14 6/12/12
f 148/13/13 149/15/15 8/16/16 7/14/14
f 149/15/15 150/17/17 9/18/18 8/16/16
f 150/17/17 151/19/19 10/20/20 9/18/18
f 151/19/19 152/21/21 11/22/22 10/20/20
f 152/21/21 153/23/23 12/24/24 11/22/22
f 153/23/23 154/25/25 13/26/26 12/24/24
f 154/25/25 155/27/27 14/28/28 13/26/26
f 155/27/27 156/29/29 15/30/30 14/28/28
f 156/29/29 157/31/31 16/32/32 15/30/30
f 157/31/31 158/33/33 17/34/34 16/32/32
f 158/33/33 159/35/35 18/36/36 17/34/34
f 159/35/35 160/37/37 19/38/38 18/36/36
f 160/37/37 161/39/39 20/40/40 19/38/38
f 161/39/39 142/41/1 1/42/4 20/40/40
f 1/4/4 2/3/3 22/43/41 21/44/42
f 2/3/3 3/6/6 23/45/43 22/43/41
f 3/6/6 4/8/8 24/46/44 23/45/43
f 4/8/8 5/10/10 25/47/45 24/46/44
f 5/10/10 6/12/12 26/48/46 25/47/45
f 6/12/12 7/14/14 27/49/47 26/48/46
f 7/14/14 8/16/16 28/50/48 27/49/47
f 8/16/16 9/18/18 29/51/49 28/50/48
f 9/18/18 10/20/20 30/52/50 29/51/49
f 10/20/20 11/22/22 31/53/51 30/52/50
f 11/22/22 12/24/24 32/54/52 31/53/51
f 12/24/24 13/26/26 33/55/53 32/54/52
f 13/26/26 14/28/28 34/56/54 33/55/53
f 14/28/28 15/30/30 35/57/55 34/56/54
f 15/30/30 16/32/32 36/58/56 35/57/55
f 16/32/32 17/34/34 37/59/57 36/58/56
f 17/34/34 18/36/36 38/60/58 37/59/57
f 18/36/36 19/38/38 39/61/59 38/60/58
f 19/38/38 20/40/40 40/62/60 39/61/59
f 20/40/40 1/42/4 21/63/42 40/62/60
f 21/44/42 22/43/41 42/64/61 41/65/62
f 22/43/41 23/45/43 43/66/63 42/64/61
f 23/45/43 24/46/44 44/67/64 43/66/63
f 24/46/44 25/47/45 45/68/65 44/67/64
f 25/47/45 26/48/46 46/69/66 45/68/65
f 26/48/46 27/49/47 47/70/67 46/69/66
f 27/49/47 28/50/48 48/71/68 47/70/67
f 28/50/48 29/51/49 49/72/69 48/71/68
f 29/51/49 30/52/50 50/73/70 49/72/69
f 30/52/50 31/53/51 51/74/71 50/73/70
f 31/53/51 32/54/52 52/75/72 51/74/71
f 32/54/52 33/55/53 53/76/73 52/75/72
f 33/55/53 34/56/54 54/77/74 53/76/73
f 34/56/54 35/57/55 55/78/75 54/77/74
f 35/57/55 36/58/56 56/79/76 55/78/75
f 36/58/56 37/59/57 57/80/77 56/79/76
f 37/59/57 38/60/58 58/81/78 57/80/77
f 38/60/58 39/61/59 59/82/79 58/81/78
f 39/61/59 40/62/60 60/83/80 59/82/79
f 40/62/60 21/63/42 41/84/62 60/83/80
f 41/65/62 42/64/61 62/85/81 61/86/82
f 42/64/61 43/66/63 63/87/83 62/85/81
f 43/66/63 44/67/64 64/88/84 63/87/83
f 44/67/64 45/68/65 65/89/85 64/88/84
f 45/68/65 46/69/66 66/90/86 65/89/85
f 46/69/66 47/70/67 67/91/87 66/90/86
f 47/70/67 48/71/68 68/92/88 67/91/87
f 48/71/68 49/72/69 69/93/89 68/92/88
f 49/72/69 50/73/70 70/94/90 69/93/89
f 50/73/70 51/74/71 71/95/91 70/94/90
f 51/74/71 52/75/72 72/96/92 71/95/91
f 52/75/72 53/76/73 73/97/93 72/96/92
f 53/76/73 54/77/74 74/98/94 73/97/93
f 54/77/74 55/78/75 75/99/95 74/98/94
f 55/78/75 56/79/76 76/100/96 75/99/95
f 56/79/76 57/80/77 77/101/97 76/100/96
f 57/80/77 58/81/78 78/102/98 77/101/97
f 58/81/78 59/82/79 79/103/99 78/102/98
f 59/82/79 60/83/80 80/104/100 79/103/99
f 60/83/80 41/84/62 61/105/82 80/104/100
f 61/86/82 62/85/81 82/106/101 81/107/102
f 62/85/81 63/87/83 83/108/103 82/106/101
f 63/87/83 64/88/84 84/109/104 83/108/103
f 64/88/84 65/89/85 85/110/105 84/109/104
f 65/89/85 66/90/86 86/111/106 85/110/105
f 66/90/86 67/91/87 87/112/107 86/111/106
f 67/91/87 68/92/88 88/113/108 87/112/107
f 68/92/88 69/93/89 89/114/109 88/113/108
f 69/93/89 70/94/90 90/115/110 89/114/109
f 70/94/90 71/95/91 91/116/111 90/115/110
f 71/95/91 72/96/92 92/117/112 91/116/111
f 72/96/92 73/97/93 93/118/113 92/117/112
f 73/97/93 74/98/94 94/119/114 93/118/113
f 74/98/94 75/99/95 95/120/115 94/119/114
f 75/99/95 76/100/96 96/121/116 95/120/115
f 76/100/96 77/101/97 97/122/117 96/121/116
f 77/101/97 78/102/98 98/123/118 97/122/117
f 78/102/98 79/103/99 99/124/119 98/123/118
f 79/103/99 80/104/100 100/125/120 99/124/119
f 80/104/100 61/105/82 81/126/102 100/125/120
f 81/107/102 82/106/101 102/127/121 101/128/122
f 82/106/101 83/108/103 103/129/123 102/127/121
f 83/108/103 84/109/104 104/130/124 103/129/123
f 84/109/104 85/110/105 105/131/125 104/130/124
f 85/110/105 86/111/106 106/132/126 105/131/125
f 86/111/106 87/112/107 107/133/127 106/132/126
f 87/112/107 88/113/108 108/134/128 107/133/127
f 88/113/108 89/114/109 109/135/129 108/134/128
f 89/114/109 90/115/110 110/136/130 109/135/129
f 90/115/110 91/116/111 111/137/131 110/136/130
f 91/116/111 92/117/112 112/138/132 111/137/131
f 92/117/112 93/118/113 113/139/133 112/138/132
f 93/118/113 94/119/114 114/140/134 113/139/133
f 94/119/114 95/120/115 115/141/135 114/140/134
f 95/120/115 96/121/116 116/142/136 115/141/135
f 96/121/116 97/122/117 117/143/137 116/142/136
f 97/122/117 98/123/118 118/144/138 117/143/137
f 98/123/118 99/124/119 119/145/139 118/144/138
f 99/124/119 100/125/120 120/146/140 119/145/139
f 100/125/120 81/126/102 101/147/122 120/146/140
f 101/128/122 102/127/121 122/148/141 121/149/142
f 102/127/121 103/129/123 123/150/143 122/148/141
f 103/129/123 104/130/124 124/151/144 123/150/143
f 104/130/124 105/131/125 125/152/145 124/151/144
f 105/131/125 106/132/126 126/153/146 125/152/145
f 106/132/126 107/133/127 127/154/147 126/153/146
f 107/133/127 108/134/128 128/155/148 127/154/147
f 108/134/128 109/135/129 129/156/149 128/155/148
f 109/135/129 110/136/130 130/157/150 129/156/149
f 110/136/130 111/137/131 131/158/151 130/157/150
f 111/137/131 112/138/132 132/159/152 131/158/151
f 112/138/132 113/139/133 133/160/153 132/159/152
f 113/139/133 114/140/134 134/161/154 133/160/153
f 114/140/134 115/141/135 135/162/155 134/161/154
f 115/141/135 116/142/136 136/163/156 135/162/155
f 116/142/136 117/143/137 137/164/157 136/163/156
f 117/143/137 118/144/138 138/165/158 137/164/157
f 118/144/138 119/145/139 139/166/159 138/165/158
f 119/145/139 120/146/140 140/167/160 139/166/159
f 120/146/140 101/147/122 121/168/142 140/167/160
f 121/149/142 122/148/141 141/169/161
f 122/148/141 123/150/143 141/170/161
f 123/150/143 124/151/144 141/171/161
f 124/151/144 125/152/145 141/172/161
f 125/152/145 126/153/146 141/173/161
f 126/153/146 127/154/147 141/174/161
f 127/154/147 128/155/148 141/175/161
f 128/155/148 129/156/149 141/176/161
f 129/156/149 130/157/150 141/177/161
f 130/157/150 131/158/151 141/178/161
f 131/158/151 132/159/152 141/179/161
f 132/159/152 133/160/153 141/180/161
f 133/160/153 134/161/154 141/181/161
f 134/161/154 135/162/155 141/182/161
f 135/162/155 136/163/156 141/183/161
f 136/163/156 137/164/157 141/184/161
f 137/164/157 138/165/158 141/185/161
f 138/165/158 139/166/159 141/186/161
f 139/166/159 140/167/160 141/187/161
f 140/167/160 121/168/142 141/188/161
f 162/189/162 163/190/163 164/191/164 165/192/165
f 166/193/166 167/194/167 168/195/168 169/196/169
f 170/197/170 171/198/171 172/199/172 173/200/173
f 174/201/174 175/202/175 172/203/176 171/198/177
f 176/204/178 177/205/179 179/206/180 178/207/181
