# This file uses centimeters as units for non-parametric coordinates.

g default
v -6.158633 0.086424 -5.886878
v -4.077261 0.086424 -2.039536
v -6.158633 0.609979 -5.886878
v -4.077261 0.872095 -2.039536
v -4.378887 1.626567 -6.849702
v -2.297515 1.626567 -3.002360
v -4.378887 0.086424 -6.849702
v -2.297515 0.086424 -3.002360
v 6.390514 0.093762 -7.647583
v 6.168788 0.093762 -8.082745
v 5.823441 0.093762 -8.428092
v 5.388279 0.093762 -8.649817
v 4.905898 0.093762 -8.726219
v 4.423517 0.093762 -8.649817
v 3.988355 0.093762 -8.428091
v 3.643009 0.093762 -8.082745
v 3.421283 0.093762 -7.647583
v 3.344882 0.093762 -7.165202
v 3.421283 0.093762 -6.682821
v 3.643009 0.093762 -6.247660
v 3.988356 0.093762 -5.902313
v 4.423517 0.093762 -5.680587
v 4.905898 0.093762 -5.604186
v 5.388278 0.093762 -5.680587
v 5.823441 0.093762 -5.902313
v 6.168787 0.093762 -6.247660
v 6.390513 0.093762 -6.682822
v 6.466914 0.093762 -7.165202
v 4.905898 2.093762 -7.165202
v 3.302752 0.086424 -1.667541
v 5.048174 0.086424 -0.643808
v 3.302752 1.086424 -1.667541
v 5.048174 1.086424 -0.643808
v 4.326486 1.086424 -3.412963
v 6.071908 1.086424 -2.389230
v 4.326486 0.086424 -3.412963
v 6.071908 0.086424 -2.389230
v -3.745486 0.082901 4.554325
v -3.887526 0.082901 4.275557
v -4.108757 0.082901 4.054325
v -4.387526 0.082901 3.912285
v -4.696543 0.082901 3.863342
v -5.005560 0.082901 3.912285
v -5.284328 0.082901 4.054325
v -5.505560 0.082901 4.275557
v -5.647600 0.082901 4.554325
v -5.696544 0.082901 4.863342
v -5.647600 0.082901 5.172359
v -5.505560 0.082901 5.451128
v -5.284328 0.082901 5.672359
v -5.005560 0.082901 5.814399
v -4.696543 0.082901 5.863342
v -4.387526 0.082901 5.814399
v -4.108758 0.082901 5.672359
v -3.887526 0.082901 5.451128
v -3.745487 0.082901 5.172359
v -3.696543 0.082901 4.863342
v -3.745486 2.082901 4.554325
v -3.887526 2.082901 4.275557
v -4.108757 2.082901 4.054325
v -4.387526 2.082901 3.912285
v -4.696543 2.082901 3.863342
v -5.005560 2.082901 3.912285
v -5.284328 2.082901 4.054325
v -5.505560 2.082901 4.275557
v -5.647600 2.082901 4.554325
v -5.696544 2.082901 4.863342
v -5.647600 2.082901 5.172359
v -5.505560 2.082901 5.451128
v -5.284328 2.082901 5.672359
v -5.005560 2.082901 5.814399
v -4.696543 2.082901 5.863342
v -4.387526 2.082901 5.814399
v -4.108758 2.082901 5.672359
v -3.887526 2.082901 5.451128
v -3.745487 2.082901 5.172359
v -3.696543 2.082901 4.863342
v -4.696543 2.082901 4.863342
v 0.000000 0.000000 -1.000000
v 0.723607 0.525731 -0.447214
v -0.276393 0.850651 -0.447214
v -0.894427 -0.000000 -0.447214
v -0.276393 -0.850651 -0.447214
v 0.723607 -0.525731 -0.447214
v 0.894427 0.000000 0.447214
v 0.276393 0.850651 0.447214
v -0.723607 0.525731 0.447214
v -0.723607 -0.525731 0.447214
v 0.276393 -0.850651 0.447214
v 0.000000 0.000000 1.000000
v -10.000000 -0.100893 10.000000
v 10.000000 -0.101786 10.000000
v -9.567858 0.100000 9.567858
v 9.567857 0.100000 9.567858
v -10.000000 -0.101786 -10.000000
v -9.567858 0.100000 -9.567857
v 9.567857 0.100000 -9.567857
v 10.000000 -0.101786 -10.000000
v -10.000000 0.812807 10.000000
v 10.000000 0.812807 10.000000
v 9.567857 0.812807 9.567858
v -9.567858 0.812807 9.567858
v -9.567858 0.812807 -9.567857
v -10.000000 0.812807 -10.000000
v 10.000000 0.812807 -10.000000
v 9.567857 0.812807 -9.567857
v 5.825619 -0.001950 4.355629
v 5.592248 -0.001950 3.897614
v 5.228765 -0.001950 3.534132
v 4.770751 -0.001950 3.300762
v 4.263038 -0.001950 3.220348
v 3.755324 -0.001950 3.300762
v 3.297310 -0.001950 3.534132
v 2.933827 -0.001950 3.897614
v 2.700458 -0.001950 4.355629
v 2.620044 -0.001950 4.863342
v 2.700458 -0.001950 5.371056
v 2.933827 -0.001950 5.829070
v 3.297310 -0.001950 6.192553
v 3.755325 -0.001950 6.425922
v 4.263038 -0.001950 6.506336
v 4.770751 -0.001950 6.425922
v 5.228765 -0.001950 6.192552
v 5.592247 -0.001950 5.829070
v 5.825618 -0.001950 5.371055
v 5.906032 -0.001950 4.863342
v 5.825619 0.961273 4.355629
v 5.592248 0.961273 3.897614
v 5.228765 0.961273 3.534132
v 4.770751 0.961273 3.300762
v 4.263038 0.961273 3.220348
v 3.755324 0.961273 3.300762
v 3.297310 0.961273 3.534132
v 2.933827 0.961273 3.897614
v 2.700458 0.961273 4.355629
v 2.620044 0.961273 4.863342
v 2.700458 0.961273 5.371056
v 2.933827 0.961273 5.829070
v 3.297310 0.961273 6.192553
v 3.755325 0.961273 6.425922
v 4.263038 0.961273 6.506336
v 4.770751 0.961273 6.425922
v 5.228765 0.961273 6.192552
v 5.592247 0.961273 5.829070
v 5.825618 0.961273 5.371055
v 5.906032 0.961273 4.863342
v 4.263038 0.961273 4.863342
vt 0.375000 0.000000
vt 0.625000 0.000000
vt 0.375000 0.250000
vt 0.625000 0.250000
vt 0.375000 0.500000
vt 0.625000 0.500000
vt 0.375000 0.750000
vt 0.625000 0.750000
vt 0.875000 0.000000
vt 0.875000 0.250000
vt 0.125000 0.000000
vt 0.125000 0.250000
vt 0.250000 0.500000
vt 0.275000 0.500000
vt 0.500000 1.000000
vt 0.300000 0.500000
vt 0.325000 0.500000
vt 0.350000 0.500000
vt 0.375000 0.500000
vt 0.400000 0.500000
vt 0.425000 0.500000
vt 0.450000 0.500000
vt 0.475000 0.500000
vt 0.500000 0.500000
vt 0.525000 0.500000
vt 0.550000 0.500000
vt 0.575000 0.500000
vt 0.600000 0.500000
vt 0.625000 0.500000
vt 0.650000 0.500000
vt 0.675000 0.500000
vt 0.700000 0.500000
vt 0.725000 0.500000
vt 0.750000 0.500000
vt 0.375000 0.000000
vt 0.625000 0.000000
vt 0.625000 0.250000
vt 0.375000 0.250000
vt 0.625000 0.500000
vt 0.375000 0.500000
vt 0.625000 0.750000
vt 0.375000 0.750000
vt 0.875000 0.000000
vt 0.875000 0.250000
vt 0.125000 0.000000
vt 0.125000 0.250000
vt 0.375000 0.312500
vt 0.387500 0.312500
vt 0.387500 0.688440
vt 0.375000 0.688440
vt 0.400000 0.312500
vt 0.400000 0.688440
vt 0.412500 0.312500
vt 0.412500 0.688440
vt 0.425000 0.312500
vt 0.425000 0.688440
vt 0.437500 0.312500
vt 0.437500 0.688440
vt 0.450000 0.312500
vt 0.450000 0.688440
vt 0.462500 0.312500
vt 0.462500 0.688440
vt 0.475000 0.312500
vt 0.475000 0.688440
vt 0.487500 0.312500
vt 0.487500 0.688440
vt 0.500000 0.312500
vt 0.500000 0.688440
vt 0.512500 0.312500
vt 0.512500 0.688440
vt 0.525000 0.312500
vt 0.525000 0.688440
vt 0.537500 0.312500
vt 0.537500 0.688440
vt 0.550000 0.312500
vt 0.550000 0.688440
vt 0.562500 0.312500
vt 0.562500 0.688440
vt 0.575000 0.312500
vt 0.575000 0.688440
vt 0.587500 0.312500
vt 0.587500 0.688440
vt 0.600000 0.312500
vt 0.600000 0.688440
vt 0.612500 0.312500
vt 0.612500 0.688440
vt 0.625000 0.312500
vt 0.625000 0.688440
vt 0.648603 0.892034
vt 0.626409 0.935591
vt 0.500000 0.837500
vt 0.591841 0.970159
vt 0.548284 0.992353
vt 0.500000 1.000000
vt 0.451716 0.992353
vt 0.408159 0.970159
vt 0.373591 0.935591
vt 0.351397 0.892034
vt 0.343750 0.843750
vt 0.351397 0.795466
vt 0.373591 0.751909
vt 0.408159 0.717341
vt 0.451716 0.695147
vt 0.500000 0.687500
vt 0.548284 0.695147
vt 0.591842 0.717341
vt 0.626409 0.751908
vt 0.648603 0.795466
vt 0.656250 0.843750
vt 1.000000 0.500000
vt 1.088104 0.823792
vt 0.838104 0.676208
vt 1.176208 0.500000
vt 1.088104 0.176208
vt 0.838104 0.323792
vt 0.588104 0.823792
vt 0.088104 0.823792
vt 0.176208 0.500000
vt 0.338104 0.676208
vt 0.088104 0.176208
vt 0.338104 0.323792
vt 0.588104 0.176208
vt 0.676208 0.500000
vt 0.500000 0.500000
vt 0.375000 0.270833
vt 0.625000 0.270833
vt 0.541667 0.333333
vt 0.458333 0.333333
vt 0.458333 0.416667
vt 0.402778 0.472222
vt 0.458333 0.333333
vt 0.541667 0.333333
vt 0.541667 0.416667
vt 0.458333 0.416667
vt 0.597222 0.472222
vt 0.541667 0.416667
vt 0.402778 0.972222
vt 0.402778 0.625000
vt 0.597222 0.625000
vt 0.597222 0.972222
vt 0.375000 0.067708
vt 0.625000 0.135417
vt 0.375000 0.312500
vt 0.387500 0.312500
vt 0.387500 0.688440
vt 0.375000 0.688440
vt 0.400000 0.312500
vt 0.400000 0.688440
vt 0.412500 0.312500
vt 0.412500 0.688440
vt 0.425000 0.312500
vt 0.425000 0.688440
vt 0.437500 0.312500
vt 0.437500 0.688440
vt 0.450000 0.312500
vt 0.450000 0.688440
vt 0.462500 0.312500
vt 0.462500 0.688440
vt 0.475000 0.312500
vt 0.475000 0.688440
vt 0.487500 0.312500
vt 0.487500 0.688440
vt 0.500000 0.312500
vt 0.500000 0.688440
vt 0.512500 0.312500
vt 0.512500 0.688440
vt 0.525000 0.312500
vt 0.525000 0.688440
vt 0.537500 0.312500
vt 0.537500 0.688440
vt 0.550000 0.312500
vt 0.550000 0.688440
vt 0.562500 0.312500
vt 0.562500 0.688440
vt 0.575000 0.312500
vt 0.575000 0.688440
vt 0.587500 0.312500
vt 0.587500 0.688440
vt 0.600000 0.312500
vt 0.600000 0.688440
vt 0.612500 0.312500
vt 0.612500 0.688440
vt 0.625000 0.312500
vt 0.625000 0.688440
vt 0.648603 0.892034
vt 0.626409 0.935591
vt 0.500000 0.837500
vt 0.591841 0.970159
vt 0.548284 0.992353
vt 0.500000 1.000000
vt 0.451716 0.992353
vt 0.408159 0.970159
vt 0.373591 0.935591
vt 0.351397 0.892034
vt 0.343750 0.843750
vt 0.351397 0.795466
vt 0.373591 0.751909
vt 0.408159 0.717341
vt 0.451716 0.695147
vt 0.500000 0.687500
vt 0.548284 0.695147
vt 0.591842 0.717341
vt 0.626409 0.751908
vt 0.648603 0.795466
vt 0.656250 0.843750
vn -0.879541 0.000000 0.475823
vn -0.879541 0.000000 0.475823
vn -0.879541 0.000000 0.475823
vn -0.879541 0.000000 0.475823
vn -0.365543 0.915771 0.166560
vn -0.365543 0.915771 0.166560
vn -0.365543 0.915771 0.166560
vn -0.365543 0.915771 0.166560
vn 0.879541 0.000000 -0.475823
vn 0.879541 0.000000 -0.475823
vn 0.879541 0.000000 -0.475823
vn 0.879541 0.000000 -0.475823
vn 0.475822 0.000000 0.879541
vn 0.475822 0.000000 0.879541
vn 0.475823 0.000000 0.879541
vn 0.475822 0.000000 0.879541
vn -0.475823 0.000000 -0.879541
vn -0.475823 0.000000 -0.879541
vn -0.475823 0.000000 -0.879541
vn -0.475823 0.000000 -0.879541
vn 0.749726 0.615281 -0.243600
vn 0.637755 0.615281 -0.463356
vn 0.000000 1.000000 -0.000001
vn 0.463356 0.615281 -0.637754
vn 0.243600 0.615281 -0.749725
vn 0.000000 0.615281 -0.788308
vn -0.243601 0.615281 -0.749725
vn -0.463356 0.615281 -0.637754
vn -0.637754 0.615281 -0.463356
vn -0.749725 0.615281 -0.243600
vn -0.788308 0.615281 0.000000
vn -0.749725 0.615281 0.243601
vn -0.637754 0.615281 0.463356
vn -0.463356 0.615281 0.637754
vn -0.243600 0.615281 0.749725
vn -0.000000 0.615281 0.788308
vn 0.243600 0.615281 0.749725
vn 0.463356 0.615281 0.637754
vn 0.637755 0.615280 0.463356
vn 0.749726 0.615281 0.243600
vn 0.788308 0.615281 0.000001
vn -0.505924 0.000000 0.862578
vn -0.505924 0.000000 0.862578
vn -0.505924 0.000000 0.862578
vn -0.505924 0.000000 0.862578
vn 0.000000 1.000000 0.000000
vn 0.000000 1.000000 0.000000
vn 0.000000 1.000000 0.000000
vn 0.000000 1.000000 0.000000
vn 0.505924 0.000000 -0.862578
vn 0.505924 0.000000 -0.862578
vn 0.505924 0.000000 -0.862578
vn 0.505924 0.000000 -0.862578
vn 0.862578 0.000000 0.505924
vn 0.862578 0.000000 0.505924
vn 0.862578 0.000000 0.505924
vn 0.862578 0.000000 0.505924
vn -0.862578 0.000000 -0.505924
vn -0.862578 0.000000 -0.505924
vn -0.862578 0.000000 -0.505924
vn -0.862578 0.000000 -0.505924
vn 0.951057 0.000000 -0.309016
vn 0.809017 0.000000 -0.587785
vn 0.809017 0.000000 -0.587785
vn 0.951057 0.000000 -0.309016
vn 0.587785 0.000000 -0.809018
vn 0.587785 0.000000 -0.809018
vn 0.309016 0.000000 -0.951057
vn 0.309016 0.000000 -0.951057
vn 0.000000 0.000000 -1.000000
vn 0.000000 0.000000 -1.000000
vn -0.309017 0.000000 -0.951056
vn -0.309017 0.000000 -0.951056
vn -0.587786 0.000000 -0.809017
vn -0.587786 0.000000 -0.809017
vn -0.809017 0.000000 -0.587786
vn -0.809017 0.000000 -0.587786
vn -0.951056 0.000000 -0.309017
vn -0.951056 0.000000 -0.309017
vn -1.000000 0.000000 0.000000
vn -1.000000 0.000000 0.000000
vn -0.951056 0.000000 0.309017
vn -0.951056 0.000000 0.309017
vn -0.809017 0.000000 0.587786
vn -0.809017 0.000000 0.587786
vn -0.587785 0.000000 0.809017
vn -0.587785 0.000000 0.809017
vn -0.309017 0.000000 0.951057
vn -0.309017 0.000000 0.951057
vn 0.000000 0.000000 1.000000
vn 0.000000 0.000000 1.000000
vn 0.309017 0.000000 0.951057
vn 0.309017 0.000000 0.951057
vn 0.587785 0.000000 0.809017
vn 0.587785 0.000000 0.809017
vn 0.809017 0.000000 0.587785
vn 0.809017 0.000000 0.587785
vn 0.951057 0.000000 0.309017
vn 0.951057 0.000000 0.309017
vn 1.000000 0.000000 0.000001
vn 1.000000 0.000000 0.000001
vn 0.000000 1.000000 0.000000
vn 0.000000 1.000000 0.000000
vn 0.000000 1.000000 0.000000
vn 0.000000 1.000000 0.000000
vn 0.000000 1.000000 0.000000
vn 0.000000 1.000000 0.000000
vn 0.000000 1.000000 0.000000
vn 0.000000 1.000000 0.000000
vn 0.000000 1.000000 0.000000
vn 0.000000 1.000000 0.000000
vn 0.000000 1.000000 0.000000
vn 0.000000 1.000000 0.000000
vn 0.000000 1.000000 0.000000
vn 0.000000 1.000000 0.000000
vn 0.000000 1.000000 0.000000
vn 0.000000 1.000000 0.000000
vn 0.000000 1.000000 0.000000
vn 0.000000 1.000000 0.000000
vn 0.000000 1.000000 0.000000
vn 0.000000 1.000000 0.000000
vn 0.000000 1.000000 0.000000
vn 0.187593 0.577350 -0.794654
vn 0.187593 0.577350 -0.794655
vn 0.187593 0.577350 -0.794654
vn -0.491124 0.356822 -0.794655
vn -0.491123 0.356822 -0.794654
vn -0.491124 0.356822 -0.794655
vn -0.491123 -0.356822 -0.794654
vn -0.491123 -0.356822 -0.794655
vn -0.491123 -0.356822 -0.794655
vn 0.187592 -0.577350 -0.794654
vn 0.187592 -0.577350 -0.794654
vn 0.187592 -0.577350 -0.794654
vn 0.607062 -0.000000 -0.794654
vn 0.607062 -0.000000 -0.794654
vn 0.607062 -0.000000 -0.794654
vn 0.303531 0.934172 -0.187593
vn 0.303531 0.934172 -0.187593
vn 0.303531 0.934172 -0.187593
vn -0.794655 0.577350 -0.187592
vn -0.794655 0.577350 -0.187592
vn -0.794655 0.577350 -0.187592
vn -0.794654 -0.577350 -0.187592
vn -0.794654 -0.577350 -0.187592
vn -0.794654 -0.577350 -0.187592
vn 0.303531 -0.934172 -0.187593
vn 0.303531 -0.934172 -0.187593
vn 0.303531 -0.934172 -0.187593
vn 0.982247 0.000000 -0.187593
vn 0.982247 0.000000 -0.187593
vn 0.982247 0.000000 -0.187593
vn 0.794655 0.577350 0.187592
vn 0.794654 0.577350 0.187592
vn 0.794655 0.577350 0.187592
vn -0.303531 0.934172 0.187593
vn -0.303531 0.934172 0.187593
vn -0.303531 0.934172 0.187593
vn -0.982247 0.000000 0.187593
vn -0.982247 0.000000 0.187593
vn -0.982247 0.000000 0.187593
vn -0.303531 -0.934172 0.187592
vn -0.303531 -0.934172 0.187592
vn -0.303531 -0.934172 0.187592
vn 0.794654 -0.577350 0.187592
vn 0.794654 -0.577350 0.187592
vn 0.794655 -0.577350 0.187592
vn 0.491123 0.356822 0.794654
vn 0.491123 0.356822 0.794654
vn 0.491123 0.356822 0.794655
vn -0.187592 0.577350 0.794654
vn -0.187593 0.577350 0.794654
vn -0.187593 0.577350 0.794654
vn -0.607062 -0.000000 0.794655
vn -0.607062 -0.000000 0.794655
vn -0.607062 -0.000000 0.794655
vn -0.187592 -0.577350 0.794654
vn -0.187592 -0.577350 0.794654
vn -0.187592 -0.577350 0.794654
vn 0.491123 -0.356822 0.794655
vn 0.491123 -0.356822 0.794655
vn 0.491123 -0.356822 0.794655
vn 0.000000 1.000000 -0.000000
vn 0.000000 1.000000 -0.000000
vn 0.000000 1.000000 -0.000000
vn 0.000000 1.000000 -0.000000
vn 0.000000 1.000000 -0.000000
vn 0.000000 1.000000 -0.000000
vn 0.000000 1.000000 -0.000000
vn 0.000000 1.000000 -0.000000
vn 0.000000 1.000000 0.000000
vn 0.000000 1.000000 0.000000
vn 0.000000 1.000000 0.000000
vn 0.000000 1.000000 0.000000
vn 0.000000 1.000000 0.000000
vn 0.000000 1.000000 0.000000
vn 0.000000 1.000000 0.000000
vn 0.000000 1.000000 0.000000
vn 0.000000 1.000000 -0.000000
vn 0.000000 1.000000 -0.000000
vn 0.000000 1.000000 -0.000000
vn 0.000000 1.000000 -0.000000
vn -0.000022 -1.000000 0.000022
vn -0.000022 -1.000000 0.000022
vn -0.000022 -1.000000 0.000022
vn -0.000022 -1.000000 0.000022
vn 0.000000 0.000000 1.000000
vn 0.000000 0.000000 1.000000
vn 0.000000 0.000000 1.000000
vn 0.000000 0.000000 1.000000
vn 0.000000 0.000000 -1.000000
vn 0.000000 0.000000 -1.000000
vn 0.000000 0.000000 -1.000000
vn 0.000000 0.000000 -1.000000
vn 1.000000 0.000000 0.000000
vn 1.000000 0.000000 0.000000
vn 1.000000 0.000000 0.000000
vn 1.000000 0.000000 0.000000
vn -1.000000 0.000000 0.000000
vn -1.000000 0.000000 0.000000
vn -1.000000 0.000000 0.000000
vn -1.000000 0.000000 0.000000
vn 1.000000 0.000000 0.000000
vn 1.000000 0.000000 0.000000
vn 1.000000 0.000000 0.000000
vn 1.000000 0.000000 0.000000
vn -1.000000 0.000000 0.000000
vn -1.000000 0.000000 0.000000
vn -1.000000 0.000000 0.000000
vn -1.000000 0.000000 0.000000
vn 0.000000 0.000000 1.000000
vn 0.000000 0.000000 1.000000
vn 0.000000 0.000000 1.000000
vn 0.000000 0.000000 1.000000
vn 0.000000 0.000000 -1.000000
vn 0.000000 0.000000 -1.000000
vn 0.000000 0.000000 -1.000000
vn 0.000000 0.000000 -1.000000
vn 0.951057 0.000000 -0.309016
vn 0.809017 0.000000 -0.587786
vn 0.809017 0.000000 -0.587786
vn 0.951057 0.000000 -0.309016
vn 0.587785 0.000000 -0.809017
vn 0.587785 0.000000 -0.809017
vn 0.309017 0.000000 -0.951057
vn 0.309017 0.000000 -0.951057
vn 0.000000 0.000000 -1.000000
vn 0.000000 0.000000 -1.000000
vn -0.309017 0.000000 -0.951057
vn -0.309017 0.000000 -0.951057
vn -0.587785 0.000000 -0.809017
vn -0.587785 0.000000 -0.809017
vn -0.809017 0.000000 -0.587785
vn -0.809017 0.000000 -0.587785
vn -0.951057 0.000000 -0.309017
vn -0.951057 0.000000 -0.309017
vn -1.000000 0.000000 -0.000000
vn -1.000000 0.000000 -0.000000
vn -0.951057 0.000000 0.309017
vn -0.951057 0.000000 0.309017
vn -0.809017 0.000000 0.587785
vn -0.809017 0.000000 0.587785
vn -0.587785 0.000000 0.809017
vn -0.587785 0.000000 0.809017
vn -0.309017 0.000000 0.951057
vn -0.309017 0.000000 0.951057
vn 0.000000 0.000000 1.000000
vn 0.000000 0.000000 1.000000
vn 0.309017 0.000000 0.951056
vn 0.309017 0.000000 0.951056
vn 0.587785 0.000000 0.809017
vn 0.587785 0.000000 0.809017
vn 0.809017 0.000000 0.587786
vn 0.809017 0.000000 0.587786
vn 0.951056 0.000000 0.309017
vn 0.951056 0.000000 0.309017
vn 1.000000 0.000000 0.000001
vn 1.000000 0.000000 0.000001
vn 0.000000 1.000000 0.000000
vn 0.000000 1.000000 0.000000
vn 0.000000 1.000000 0.000000
vn 0.000000 1.000000 0.000000
vn 0.000000 1.000000 0.000000
vn 0.000000 1.000000 0.000000
vn 0.000000 1.000000 -0.000000
vn 0.000000 1.000000 -0.000000
vn 0.000000 1.000000 0.000000
vn 0.000000 1.000000 -0.000000
vn 0.000000 1.000000 0.000000
vn 0.000000 1.000000 0.000000
vn 0.000000 1.000000 0.000000
vn 0.000000 1.000000 0.000000
vn 0.000000 1.000000 0.000000
vn 0.000000 1.000000 0.000000
vn 0.000000 1.000000 0.000000
vn 0.000000 1.000000 0.000000
vn 0.000000 1.000000 0.000000
vn 0.000000 1.000000 0.000000
vn 0.000000 1.000000 0.000000
s off
g pCube3
f 1/1/1 2/2/2 4/4/3 3/3/4
f 3/3/5 4/4/6 6/6/7 5/5/8
f 5/5/9 6/6/10 8/8/11 7/7/12
f 2/2/13 8/9/14 6/10/15 4/4/16
f 7/11/17 1/1/18 3/3/19 5/12/20
s 1
f 9/13/21 10/14/22 29/15/23
f 10/14/22 11/16/24 29/15/23
f 11/16/24 12/17/25 29/15/23
f 12/17/25 13/18/26 29/15/23
f 13/18/26 14/19/27 29/15/23
f 14/19/27 15/20/28 29/15/23
f 15/20/28 16/21/29 29/15/23
f 16/21/29 17/22/30 29/15/23
f 17/22/30 18/23/31 29/15/23
f 18/23/31 19/24/32 29/15/23
f 19/24/32 20/25/33 29/15/23
f 20/25/33 21/26/34 29/15/23
f 21/26/34 22/27/35 29/15/23
f 22/27/35 23/28/36 29/15/23
f 23/28/36 24/29/37 29/15/23
f 24/29/37 25/30/38 29/15/23
f 25/30/38 26/31/39 29/15/23
f 26/31/39 27/32/40 29/15/23
f 27/32/40 28/33/41 29/15/23
f 28/33/41 9/34/21 29/15/23
s off
f 30/35/42 31/36/43 33/37/44 32/38/45
f 32/38/46 33/37/47 35/39/48 34/40/49
f 34/40/50 35/39/51 37/41/52 36/42/53
f 31/36/54 37/43/55 35/44/56 33/37/57
f 36/45/58 30/35/59 32/38/60 34/46/61
s 2
f 38/47/62 39/48/63 59/49/64 58/50/65
f 39/48/63 40/51/66 60/52/67 59/49/64
f 40/51/66 41/53/68 61/54/69 60/52/67
f 41/53/68 42/55/70 62/56/71 61/54/69
f 42/55/70 43/57/72 63/58/73 62/56/71
f 43/57/72 44/59/74 64/60/75 63/58/73
f 44/59/74 45/61/76 65/62/77 64/60/75
f 45/61/76 46/63/78 66/64/79 65/62/77
f 46/63/78 47/65/80 67/66/81 66/64/79
f 47/65/80 48/67/82 68/68/83 67/66/81
f 48/67/82 49/69/84 69/70/85 68/68/83
f 49/69/84 50/71/86 70/72/87 69/70/85
f 50/71/86 51/73/88 71/74/89 70/72/87
f 51/73/88 52/75/90 72/76/91 71/74/89
f 52/75/90 53/77/92 73/78/93 72/76/91
f 53/77/92 54/79/94 74/80/95 73/78/93
f 54/79/94 55/81/96 75/82/97 74/80/95
f 55/81/96 56/83/98 76/84/99 75/82/97
f 56/83/98 57/85/100 77/86/101 76/84/99
f 57/85/100 38/87/62 58/88/65 77/86/101
s 3
f 58/89/102 59/90/103 78/91/104
f 59/90/103 60/92/105 78/91/104
f 60/92/105 61/93/106 78/91/104
f 61/93/106 62/94/107 78/91/104
f 62/94/107 63/95/108 78/91/104
f 63/95/108 64/96/109 78/91/104
f 64/96/109 65/97/110 78/91/104
f 65/97/110 66/98/111 78/91/104
f 66/98/111 67/99/112 78/91/104
f 67/99/112 68/100/113 78/91/104
f 68/100/113 69/101/114 78/91/104
f 69/101/114 70/102/115 78/91/104
f 70/102/115 71/103/116 78/91/104
f 71/103/116 72/104/117 78/91/104
f 72/104/117 73/105/118 78/91/104
f 73/105/118 74/106/119 78/91/104
f 74/106/119 75/107/120 78/91/104
f 75/107/120 76/108/121 78/91/104
f 76/108/121 77/109/122 78/91/104
f 77/109/122 58/89/102 78/91/104
s off
f 79/110/123 81/111/124 80/112/125
f 79/110/126 82/113/127 81/111/128
f 79/110/129 83/114/130 82/113/131
f 79/110/132 84/115/133 83/114/134
f 79/110/135 80/112/136 84/115/137
f 80/112/138 81/111/139 86/116/140
f 81/117/141 82/118/142 87/119/143
f 82/118/144 83/120/145 88/121/146
f 83/114/147 84/115/148 89/122/149
f 84/115/150 80/112/151 85/123/152
f 80/112/153 86/116/154 85/123/155
f 81/117/156 87/119/157 86/116/158
f 82/118/159 88/121/160 87/119/161
f 83/120/162 89/122/163 88/121/164
f 84/115/165 85/123/166 89/122/167
f 85/123/168 86/116/169 90/124/170
f 86/116/171 87/119/172 90/124/173
f 87/119/174 88/121/175 90/124/176
f 88/121/177 89/122/178 90/124/179
f 89/122/180 85/123/181 90/124/182
f 99/125/183 100/126/184 101/127/185 102/128/186
f 99/125/187 102/128/188 103/129/189 104/130/190
f 93/131/191 94/132/192 97/133/193 96/134/194
f 101/127/195 100/126/196 105/135/197 106/136/198
f 103/129/199 106/136/200 105/135/201 104/130/202
f 91/137/203 95/138/204 98/139/205 92/140/206
f 91/141/207 92/142/208 100/126/209 99/125/210
f 94/132/211 93/131/212 102/128/213 101/127/214
f 93/131/215 96/134/216 103/129/217 102/128/218
f 95/138/219 91/141/220 99/125/221 104/130/222
f 92/142/223 98/139/224 105/135/225 100/126/226
f 97/133/227 94/132/228 101/127/229 106/136/230
f 96/134/231 97/133/232 106/136/233 103/129/234
f 98/139/235 95/138/236 104/130/237 105/135/238
s 4
f 107/143/239 108/144/240 128/145/241 127/146/242
f 108/144/240 109/147/243 129/148/244 128/145/241
f 109/147/243 110/149/245 130/150/246 129/148/244
f 110/149/245 111/151/247 131/152/248 130/150/246
f 111/151/247 112/153/249 132/154/250 131/152/248
f 112/153/249 113/155/251 133/156/252 132/154/250
f 113/155/251 114/157/253 134/158/254 133/156/252
f 114/157/253 115/159/255 135/160/256 134/158/254
f 115/159/255 116/161/257 136/162/258 135/160/256
f 116/161/257 117/163/259 137/164/260 136/162/258
f 117/163/259 118/165/261 138/166/262 137/164/260
f 118/165/261 119/167/263 139/168/264 138/166/262
f 119/167/263 120/169/265 140/170/266 139/168/264
f 120/169/265 121/171/267 141/172/268 140/170/266
f 121/171/267 122/173/269 142/174/270 141/172/268
f 122/173/269 123/175/271 143/176/272 142/174/270
f 123/175/271 124/177/273 144/178/274 143/176/272
f 124/177/273 125/179/275 145/180/276 144/178/274
f 125/179/275 126/181/277 146/182/278 145/180/276
f 126/181/277 107/183/239 127/184/242 146/182/278
s 5
f 127/185/279 128/186/280 147/187/281
f 128/186/280 129/188/282 147/187/281
f 129/188/282 130/189/283 147/187/281
f 130/189/283 131/190/284 147/187/281
f 131/190/284 132/191/285 147/187/281
f 132/191/285 133/192/286 147/187/281
f 133/192/286 134/193/287 147/187/281
f 134/193/287 135/194/288 147/187/281
f 135/194/288 136/195/289 147/187/281
f 136/195/289 137/196/290 147/187/281
f 137/196/290 138/197/291 147/187/281
f 138/197/291 139/198/292 147/187/281
f 139/198/292 140/199/293 147/187/281
f 140/199/293 141/200/294 147/187/281
f 141/200/294 142/201/295 147/187/281
f 142/201/295 143/202/296 147/187/281
f 143/202/296 144/203/297 147/187/281
f 144/203/297 145/204/298 147/187/281
f 145/204/298 146/205/299 147/187/281
f 146/205/299 127/185/279 147/187/281
